<svg xmlns="http://www.w3.org/2000/svg" width="80" height="80" viewBox="0 0 80 80" fill="none">
  <circle cx="40" cy="40" r="40" fill="#4A90E2" opacity="0.1"/>
  <circle cx="40" cy="40" r="32" fill="#4A90E2" opacity="0.3"/>
  <circle cx="40" cy="40" r="24" fill="#4A90E2"/>
  <path d="M30 32C30 30.8954 30.8954 30 32 30H48C49.1046 30 50 30.8954 50 32V48C50 49.1046 49.1046 50 48 50H32C30.8954 50 30 49.1046 30 48V32Z" fill="white"/>
  <path d="M35 40C35 38.3431 36.3431 37 38 37H42C43.6569 37 45 38.3431 45 40V47C45 48.6569 43.6569 50 42 50H38C36.3431 50 35 48.6569 35 47V40Z" fill="#4A90E2"/>
  <circle cx="40" cy="34" r="3" fill="#4A90E2"/>
  <path d="M30 32C30 30.8954 30.8954 30 32 30H48C49.1046 30 50 30.8954 50 32V33H30V32Z" fill="#4A90E2"/>
</svg>