<svg xmlns="http://www.w3.org/2000/svg" width="250" height="70" viewBox="0 0 250 70">
  <g fill="#001F3F">
    <path d="M20.4,40.2c-0.8,0-1.5-0.3-2.1-0.9c-0.6-0.6-0.9-1.3-0.9-2.1v-5.4c0-0.8,0.3-1.5,0.9-2.1c0.6-0.6,1.3-0.9,2.1-0.9h6c0.8,0,1.5,0.3,2.1,0.9c0.6,0.6,0.9,1.3,0.9,2.1v5.4c0,0.8-0.3,1.5-0.9,2.1c-0.6,0.6-1.3,0.9-2.1,0.9H20.4z"/>
    <path d="M45.6,40.2c-0.8,0-1.5-0.3-2.1-0.9c-0.6-0.6-0.9-1.3-0.9-2.1V17.3c0-0.8,0.3-1.5,0.9-2.1c0.6-0.6,1.3-0.9,2.1-0.9h6c0.8,0,1.5,0.3,2.1,0.9c0.6,0.6,0.9,1.3,0.9,2.1v19.9c0,0.8-0.3,1.5-0.9,2.1c-0.6,0.6-1.3,0.9-2.1,0.9H45.6z"/>
    <path d="M70.8,40.2c-0.8,0-1.5-0.3-2.1-0.9c-0.6-0.6-0.9-1.3-0.9-2.1V17.3c0-0.8,0.3-1.5,0.9-2.1c0.6-0.6,1.3-0.9,2.1-0.9h6c0.8,0,1.5,0.3,2.1,0.9c0.6,0.6,0.9,1.3,0.9,2.1v3.6l4.5-5.4c0.6-0.7,1.3-1.1,2.1-1.2c0.8-0.1,1.6,0.1,2.3,0.6l4.8,3.6c0.7,0.5,1.1,1.2,1.2,2c0.1,0.8-0.1,1.6-0.6,2.3l-7.2,9l8.4,10.2c0.5,0.7,0.8,1.4,0.7,2.2c-0.1,0.8-0.5,1.5-1.2,2.1l-4.8,3.6c-0.7,0.5-1.5,0.7-2.3,0.6c-0.8-0.1-1.5-0.5-2.1-1.2l-5.7-7.2v3.9c0,0.8-0.3,1.5-0.9,2.1c-0.6,0.6-1.3,0.9-2.1,0.9H70.8z"/>
    <path d="M106.8,40.2c-0.8,0-1.5-0.3-2.1-0.9c-0.6-0.6-0.9-1.3-0.9-2.1V17.3c0-0.8,0.3-1.5,0.9-2.1c0.6-0.6,1.3-0.9,2.1-0.9h6c0.8,0,1.5,0.3,2.1,0.9c0.6,0.6,0.9,1.3,0.9,2.1v3l4.2-4.8c0.6-0.7,1.3-1.1,2.1-1.2c0.8-0.1,1.6,0.1,2.3,0.6l3.6,2.7c0.7,0.5,1.1,1.2,1.2,2c0.1,0.8-0.1,1.6-0.6,2.3l-5.4,6.6l6.3,7.8c0.5,0.7,0.8,1.4,0.7,2.2c-0.1,0.8-0.5,1.5-1.2,2.1l-3.6,2.7c-0.7,0.5-1.5,0.7-2.3,0.6c-0.8-0.1-1.5-0.5-2.1-1.2l-5.1-6.3v3.6c0,0.8-0.3,1.5-0.9,2.1c-0.6,0.6-1.3,0.9-2.1,0.9H106.8z"/>
    <path d="M150,40.2c-0.8,0-1.5-0.3-2.1-0.9c-0.6-0.6-0.9-1.3-0.9-2.1V31.8c0-0.2,0-0.3,0.1-0.5c0.1-0.2,0.2-0.4,0.3-0.5l13.2-15.9H138c-0.8,0-1.5-0.3-2.1-0.9c-0.6-0.6-0.9-1.3-0.9-2.1v-3c0-0.8,0.3-1.5,0.9-2.1c0.6-0.6,1.3-0.9,2.1-0.9h24c0.8,0,1.5,0.3,2.1,0.9c0.6,0.6,0.9,1.3,0.9,2.1v5.7c0,0.2,0,0.4-0.1,0.5c-0.1,0.2-0.2,0.3-0.3,0.5l-13.2,15.9H164c0.8,0,1.5,0.3,2.1,0.9c0.6,0.6,0.9,1.3,0.9,2.1v3c0,0.8-0.3,1.5-0.9,2.1c-0.6,0.6-1.3,0.9-2.1,0.9H150z"/>
    <path d="M182.4,40.2c-3.5,0-6.5-1.3-9-3.8c-2.5-2.5-3.8-5.6-3.8-9V17.3c0-0.8,0.3-1.5,0.9-2.1c0.6-0.6,1.3-0.9,2.1-0.9h6c0.8,0,1.5,0.3,2.1,0.9c0.6,0.6,0.9,1.3,0.9,2.1v10.2c0,0.8,0.3,1.5,0.9,2.1c0.6,0.6,1.3,0.9,2.1,0.9h0.9c0.8,0,1.5-0.3,2.1-0.9c0.6-0.6,0.9-1.3,0.9-2.1V17.3c0-0.8,0.3-1.5,0.9-2.1c0.6-0.6,1.3-0.9,2.1-0.9h6c0.8,0,1.5,0.3,2.1,0.9c0.6,0.6,0.9,1.3,0.9,2.1v10.2c0,3.5-1.3,6.5-3.8,9C188.9,39,185.9,40.2,182.4,40.2z"/>
    <path d="M214.8,40.2c-3.5,0-6.5-1.3-9-3.8c-2.5-2.5-3.8-5.6-3.8-9V9.9c0-0.8,0.3-1.5,0.9-2.1c0.6-0.6,1.3-0.9,2.1-0.9h6c0.8,0,1.5,0.3,2.1,0.9c0.6,0.6,0.9,1.3,0.9,2.1v17.4c0,0.8,0.3,1.5,0.9,2.1c0.6,0.6,1.3,0.9,2.1,0.9h1.8c0.8,0,1.5-0.3,2.1-0.9c0.6-0.6,0.9-1.3,0.9-2.1V9.9c0-0.8,0.3-1.5,0.9-2.1c0.6-0.6,1.3-0.9,2.1-0.9h6c0.8,0,1.5,0.3,2.1,0.9c0.6,0.6,0.9,1.3,0.9,2.1v27.3c0,0.8-0.3,1.5-0.9,2.1c-0.6,0.6-1.3,0.9-2.1,0.9H214.8z"/>
  </g>
  <circle cx="28" cy="20" r="17" fill="#001F3F"/>
  <path d="M22,18c0-3.3,2.7-6,6-6s6,2.7,6,6c0,2.2-1.2,4.2-3,5.2v5.8c0,1.7-1.3,3-3,3s-3-1.3-3-3v-5.8C23.2,22.2,22,20.2,22,18z" fill="#FFFFFF"/>
  <circle cx="28" cy="16" r="2" fill="#001F3F"/>
</svg>