<svg xmlns="http://www.w3.org/2000/svg" width="48" height="48" viewBox="0 0 48 48">
  <circle cx="24" cy="24" r="22" fill="#001F3F"/>
  <path d="M17,22c0-3.9,3.1-7,7-7s7,3.1,7,7c0,2.5-1.3,4.7-3.3,6V35c0,2-1.6,3.7-3.7,3.7s-3.7-1.6-3.7-3.7v-7C18.3,26.7,17,24.5,17,22z" fill="#FFFFFF"/>
  <circle cx="24" cy="19" r="2.5" fill="#001F3F"/>
  <path d="M32,12.5l-8-5l-8,5v4l8-5l8,5V12.5z" fill="#FFFFFF"/>
  <path d="M32,22l-8-5l-8,5v4l8-5l8,5V22z" fill="#FFFFFF"/>
  <path d="M16,35h16M16,39h16" stroke="#FFFFFF" stroke-width="1.5" fill="none"/>
</svg>